<svg xmlns="http://www.w3.org/2000/svg" width="25" height="24" viewBox="0 0 25 24" fill="none">
  <path d="M15.24 9.00052L14.894 18.0005M10.106 18.0005L9.76 9.00052M19.728 5.79052C20.07 5.84252 20.41 5.89752 20.75 5.95652M19.728 5.79052L18.66 19.6735C18.6164 20.2387 18.3611 20.7667 17.945 21.1518C17.529 21.5368 16.9829 21.7507 16.416 21.7505H8.584C8.0171 21.7507 7.47102 21.5368 7.05498 21.1518C6.63894 20.7667 6.38359 20.2387 6.34 19.6735L5.272 5.79052M19.728 5.79052C18.5739 5.61604 17.4138 5.48362 16.25 5.39352M5.272 5.79052C4.93 5.84152 4.59 5.89652 4.25 5.95552M5.272 5.79052C6.42613 5.61604 7.58623 5.48362 8.75 5.39352M16.25 5.39352V4.47752C16.25 3.29752 15.34 2.31352 14.16 2.27652C13.0536 2.24116 11.9464 2.24116 10.84 2.27652C9.66 2.31352 8.75 3.29852 8.75 4.47752V5.39352M16.25 5.39352C13.7537 5.2006 11.2463 5.2006 8.75 5.39352" stroke-width="1.5" stroke-linecap="round" stroke-linejoin="round"/>
</svg>