<svg xmlns="http://www.w3.org/2000/svg" width="41" height="40" viewBox="0 0 41 40" fill="none">
  <path d="M28 19.9999C28 21.989 27.2098 23.8967 25.8033 25.3032C24.3968 26.7097 22.4891 27.4999 20.5 27.4999C18.5109 27.4999 16.6032 26.7097 15.1967 25.3032C13.7902 23.8967 13 21.989 13 19.9999C13 18.0108 13.7902 16.1031 15.1967 14.6966C16.6032 13.2901 18.5109 12.4999 20.5 12.4999C22.4891 12.4999 24.3968 13.2901 25.8033 14.6966C27.2098 16.1031 28 18.0108 28 19.9999ZM28 19.9999C28 22.7616 29.6783 24.9999 31.75 24.9999C33.8217 24.9999 35.5 22.7616 35.5 19.9999C35.5 16.5296 34.2967 13.1666 32.0951 10.484C29.8935 7.80145 26.8299 5.96522 23.4262 5.28822C20.0226 4.61122 16.4895 5.13533 13.429 6.77126C10.3684 8.40718 7.96978 11.0537 6.64177 14.2599C5.31376 17.466 5.13852 21.0335 6.14593 24.3544C7.15334 27.6753 9.28105 30.5441 12.1665 32.4721C15.052 34.4001 18.5167 35.268 21.9704 34.9278C25.424 34.5876 28.6528 33.0605 31.1067 30.6066M28 19.9999V13.7499" stroke="#991B1F" stroke-width="1.5" stroke-linecap="round"/>
</svg>