<svg xmlns="http://www.w3.org/2000/svg" width="41" height="40" viewBox="0 0 41 40" fill="none">
  <path d="M18 2.5H14.25C13.2554 2.5 12.3016 2.89509 11.5983 3.59835C10.8951 4.30161 10.5 5.25544 10.5 6.25V33.75C10.5 34.7446 10.8951 35.6984 11.5983 36.4016C12.3016 37.1049 13.2554 37.5 14.25 37.5H26.75C27.7446 37.5 28.6984 37.1049 29.4016 36.4016C30.1049 35.6984 30.5 34.7446 30.5 33.75V6.25C30.5 5.25544 30.1049 4.30161 29.4016 3.59835C28.6984 2.89509 27.7446 2.5 26.75 2.5H23M18 2.5V5H23V2.5M18 2.5H23M18 33.75H23" stroke="#991B1F" stroke-width="1.5" stroke-linecap="round" stroke-linejoin="round"/>
</svg>