<svg width="25" height="24" viewBox="0 0 25 24" fill="none" xmlns="http://www.w3.org/2000/svg">
<path d="M14.0001 21V13.5C14.0001 13.3011 14.0791 13.1103 14.2198 12.9697C14.3604 12.829 14.5512 12.75 14.7501 12.75H17.7501C17.949 12.75 18.1398 12.829 18.2804 12.9697C18.4211 13.1103 18.5001 13.3011 18.5001 13.5V21M14.0001 21H2.86011M14.0001 21H18.5001M18.5001 21H22.1401M20.7501 21V9.349C21.1487 9.11891 21.489 8.80019 21.7447 8.41751C22.0004 8.03484 22.1646 7.59846 22.2247 7.14215C22.2847 6.68584 22.2389 6.22184 22.0909 5.78605C21.9429 5.35026 21.6966 4.95436 21.3711 4.629L20.1811 3.44C19.9001 3.15862 19.5188 3.00035 19.1211 3H5.87811C5.48042 3.00035 5.09915 3.15862 4.81811 3.44L3.62911 4.628C3.30435 4.95374 3.05873 5.3497 2.91118 5.78537C2.76364 6.22104 2.71811 6.68477 2.77811 7.14082C2.83811 7.59686 3.00204 8.03304 3.25725 8.41571C3.51246 8.79839 3.85215 9.11735 4.25011 9.348M4.25011 20.999V9.35C4.85013 9.69598 5.55136 9.82376 6.23486 9.71167C6.91835 9.59958 7.54203 9.25451 8.00011 8.735C8.28141 9.05445 8.62761 9.31022 9.01561 9.48525C9.4036 9.66028 9.82447 9.75054 10.2501 9.75C11.1461 9.75 11.9501 9.357 12.5001 8.734C12.7813 9.05363 13.1275 9.30959 13.5155 9.48479C13.9035 9.66 14.3244 9.75041 14.7501 9.75C15.6461 9.75 16.4501 9.357 17.0001 8.734C17.4583 9.25335 18.0821 9.59822 18.7656 9.71013C19.449 9.82204 20.1502 9.6941 20.7501 9.348M7.25011 17.999H11.0001C11.199 17.999 11.3898 17.92 11.5304 17.7793C11.6711 17.6387 11.7501 17.4479 11.7501 17.249V13.5C11.7501 13.3011 11.6711 13.1103 11.5304 12.9697C11.3898 12.829 11.199 12.75 11.0001 12.75H7.25011C7.0512 12.75 6.86043 12.829 6.71978 12.9697C6.57913 13.1103 6.50011 13.3011 6.50011 13.5V17.25C6.50011 17.665 6.83611 17.999 7.25011 17.999Z" stroke="white" stroke-width="1.5" stroke-linecap="round" stroke-linejoin="round"/>
</svg>
