<svg xmlns="http://www.w3.org/2000/svg" width="20" height="20" viewBox="0 0 20 20" fill="none">
  <path d="M3.75 3.75H5.13889L5.41667 5.13889M6.52778 10.6944H13.4722L16.25 5.13889H5.41667M6.52778 10.6944L5.41667 5.13889M6.52778 10.6944L4.93549 12.2867C4.49802 12.7242 4.80785 13.4722 5.42654 13.4722H13.4722M13.4722 13.4722C12.7052 13.4722 12.0833 14.094 12.0833 14.8611C12.0833 15.6282 12.7052 16.25 13.4722 16.25C14.2393 16.25 14.8611 15.6282 14.8611 14.8611C14.8611 14.094 14.2393 13.4722 13.4722 13.4722ZM7.91667 14.8611C7.91667 15.6282 7.29484 16.25 6.52778 16.25C5.76072 16.25 5.13889 15.6282 5.13889 14.8611C5.13889 14.094 5.76072 13.4722 6.52778 13.4722C7.29484 13.4722 7.91667 14.094 7.91667 14.8611Z" stroke="white" stroke-width="1.13" stroke-linecap="round" stroke-linejoin="round"/>
</svg>