<svg width="14" height="18" viewBox="0 0 14 18" fill="none" xmlns="http://www.w3.org/2000/svg">
<path d="M13.9446 7.41206C13.8113 7.42649 13.6773 7.43374 13.5432 7.43375C12.825 7.43126 12.1187 7.25055 11.4875 6.90784C10.8564 6.56513 10.3201 6.07113 9.92694 5.47014V12.171C9.92266 13.1457 9.62988 14.0974 9.08552 14.9059C8.54117 15.7145 7.76961 16.3438 6.86812 16.7145C5.96663 17.0852 4.97556 17.1807 4.01987 16.989C3.06418 16.7973 2.18665 16.3269 1.49791 15.6371C0.809169 14.9474 0.340058 14.0692 0.149717 13.1132C-0.0406236 12.1572 0.0563272 11.1663 0.428347 10.2654C0.800367 9.3644 1.4308 8.59376 2.24017 8.05059C3.04953 7.50742 4.0016 7.21603 4.97633 7.21316H5.28009V9.64688C5.17944 9.6317 5.07803 9.62205 4.97633 9.61795C4.3482 9.6763 3.76449 9.96707 3.33955 10.4333C2.91462 10.8995 2.67908 11.5076 2.67908 12.1385C2.67908 12.7693 2.91462 13.3774 3.33955 13.8436C3.76449 14.3099 4.3482 14.6006 4.97633 14.659C5.65172 14.6689 6.30417 14.4141 6.79414 13.9492C7.2841 13.4842 7.57266 12.846 7.59809 12.171L7.62341 0.826904H9.94864C10.0554 1.83491 10.5116 2.77375 11.2382 3.48053C11.9648 4.18731 12.9159 4.61743 13.9265 4.69627V7.40121" fill="#262626"/>
</svg>
